<svg viewBox="0 0 60 60" x="0" y="0" fill="#000000" width="60" height="60" xmlns="http://www.w3.org/2000/svg">
  <g fill="#000000">
    <path d="M49.001,0 L10.999,0 C4.934,0 0,4.934 0,10.999 L0,49.001 C0,55.066 4.934,60 10.999,60 L49.001,60 C55.065,60 60,55.066 60,49.001 L60,10.999 C60,4.934 55.065,0 49.001,0"/>
  </g>
  <g>
    <svg xmlns="http://www.w3.org/2000/svg" viewBox="0 0 24.02 16.61" width="40" height="40" x="10" y="10" class="image-svg-icon">
      <path d="M8.31 4.1h-5l.37-1.36A3.83 3.83 0 0 1 7.19 0H24l-.36 1.33a3.9 3.9 0 0 1-3.49 2.77zm-.63 2.35h11.05l-.2.76A3.9 3.9 0 0 1 15 10H6.74q-.9 3.29-1.74 6.61H0l2-7.4a3.89 3.89 0 0 1 3.49-2.76z" fill="#fff" fill-rule="evenodd"/>
    </svg>
  </g>
</svg>
